<svg xmlns="http://www.w3.org/2000/svg" xmlns:svg="http://www.w3.org/2000/svg" id="Layer_1" width="100" height="100" x="0" y="0" enable-background="new 0 0 100 100" version="1.1" viewBox="0 0 100 100" xml:space="preserve"><metadata id="metadata17"/><g id="g3"><path id="path5" d="M 50 0 C 22.43 0 0 22.43 0 50 C 0 77.57 22.43 100 50 100 C 77.57 100 100 77.57 100 50 C 100 22.43 77.57 0 50 0 z M 45.65625 7.1875 L 45.65625 16.59375 L 54.75 16.59375 L 54.75 7.25 C 75.253149 9.5085851 91.467096 26.180181 92.9375 46.90625 L 83.84375 46.90625 L 83.84375 56.0625 L 92.625 56.0625 C 89.89499 75.393332 74.263218 90.6003 54.75 92.75 L 54.75 84.125 L 45.65625 84.125 L 45.65625 92.8125 C 25.95198 90.833246 10.155986 75.529972 7.40625 56.0625 L 16.3125 56.0625 L 16.3125 46.90625 L 7.0625 46.90625 C 8.5477919 26.046088 24.962765 9.2660343 45.65625 7.1875 z"/><path id="path3" d="m 43.060054,71.482284 -18.982,-20.881 9.689,-8.479 10.477,11.05 26.523,-25.216 8.5,9.833 z"/></g></svg>