<svg xmlns="http://www.w3.org/2000/svg" xmlns:svg="http://www.w3.org/2000/svg" id="Layer_1" width="100" height="100" x="0" y="0" enable-background="new 0 0 100 100" version="1.1" viewBox="0 0 100 100" xml:space="preserve"><metadata id="metadata23"/><g id="g3"><polygon id="polygon5" points="38.065 66.551 45 63.583 45 60.501 33 65.35 33 67.685 45 72.534 45 69.429" transform="matrix(1.7231805,0,0,1.7231805,-42.571549,-60.512031)" style="fill:#010101"/><polygon id="polygon7" points="52.895 56.104 45.892 73.713 48.452 74.55 55.455 56.988" transform="matrix(1.8055344,0,0,1.5449301,-44.011073,-46.637837)" style="fill:#010101"/><polygon id="polygon9" points="69 67.685 69 65.35 57 60.501 57 63.583 63.934 66.551 57 69.429 57 72.534" transform="matrix(1.7231805,0,0,1.7231805,-37.678827,-60.512031)" style="fill:#010101"/><path id="path13" fill="#010101" d="M96.223,15H3.777C1.691,15,0,16.691,0,18.777v64.445C0,85.309,1.691,87,3.777,87h92.445 c2.086,0,3.777-1.691,3.777-3.777V18.777C100,16.691,98.309,15,96.223,15z M23.048,19.544c1.368,0,2.479,1.11,2.479,2.479 c0,1.369-1.111,2.479-2.479,2.479s-2.479-1.109-2.479-2.479C20.569,20.654,21.68,19.544,23.048,19.544z M15.494,19.544 c1.369,0,2.479,1.11,2.479,2.479c0,1.369-1.11,2.479-2.479,2.479c-1.368,0-2.479-1.109-2.479-2.479 C13.015,20.654,14.126,19.544,15.494,19.544z M7.94,19.544c1.368,0,2.479,1.11,2.479,2.479c0,1.369-1.11,2.479-2.479,2.479 s-2.479-1.109-2.479-2.479C5.461,20.654,6.572,19.544,7.94,19.544z M94,76.059C94,78.235,92.235,80,90.058,80H7.942 C5.765,80,4,78.235,4,76.059V32.941C4,30.765,5.765,29,7.942,29h82.115C92.235,29,94,30.765,94,32.941V76.059z"/></g></svg>