<svg xmlns="http://www.w3.org/2000/svg" id="Layer_1" width="16" height="16" data-name="Layer 1" viewBox="0 0 16 16"><title>NewsMedia</title><g><rect width="3.23" height=".81" x="9.61" y="5.16" rx=".41" ry=".41"/><rect width="3.23" height=".81" x="9.61" y="8.41" rx=".41" ry=".41"/><rect width="3.23" height=".81" x="9.61" y="6.78" rx=".41" ry=".41"/><rect width="3.23" height=".81" x="9.61" y="10.03" rx=".41" ry=".41"/><path d="M14.05,3.54H3.56a.4.4,0,0,0-.4.4h0v.4H2a.4.4,0,0,0-.41.4v6.5a1.2,1.2,0,0,0,1.21,1.21h10.5a1.2,1.2,0,0,0,1.21-1.21V3.94A.4.4,0,0,0,14.05,3.54ZM3.16,11.25a.38.38,0,0,1-.12.28.4.4,0,0,1-.29.12.41.41,0,0,1-.4-.4V5.56a.41.41,0,0,1,.81,0Zm10.49-6.5v6.9H4v-.4H4V4.35h9.69Z"/><path d="M8.34,5.16H5.24a.47.47,0,0,0-.47.47V8.75a.47.47,0,0,0,.47.47h3.1a.47.47,0,0,0,.47-.47V5.63A.47.47,0,0,0,8.34,5.16ZM8,8.41H5.58V6H8Z"/><rect width="4.04" height=".81" x="4.77" y="10.03" rx=".41" ry=".41"/></g></svg>